<?xml version="1.0" standalone="no"?>
<!DOCTYPE svg PUBLIC "-//W3C//DTD SVG 20010904//EN"
 "http://www.w3.org/TR/2001/REC-SVG-20010904/DTD/svg10.dtd">
<svg version="1.0" xmlns="http://www.w3.org/2000/svg"
 width="512.000000pt" height="512.000000pt" viewBox="0 0 512.000000 512.000000"
 preserveAspectRatio="xMidYMid meet">
<metadata>
Created by potrace 1.11, written by Peter Selinger 2001-2013
</metadata>
<g transform="translate(0.000000,512.000000) scale(0.100000,-0.100000)"
fill="#000000" stroke="none">
<path d="M2930 4553 c-30 -2 -80 -7 -110 -13 -30 -6 -66 -12 -80 -14 -22 -4
-44 -9 -150 -32 -59 -13 -138 -37 -177 -55 -24 -10 -47 -19 -51 -19 -11 0
-157 -76 -192 -99 -14 -9 -38 -23 -54 -31 -16 -8 -47 -31 -70 -50 -22 -20 -57
-47 -76 -62 -19 -15 -55 -45 -80 -67 -25 -23 -48 -41 -52 -41 -7 0 -73 -77
-156 -183 -19 -23 -42 -51 -51 -63 -10 -11 -26 -36 -37 -55 -10 -19 -24 -41
-31 -49 -16 -21 -123 -231 -127 -250 -2 -8 -8 -27 -14 -43 -11 -25 -28 -94
-63 -241 -7 -28 -12 -129 -12 -230 0 -162 3 -193 27 -292 14 -61 33 -124 41
-140 7 -16 17 -44 20 -62 3 -19 17 -50 30 -70 l24 -35 -30 -39 c-17 -21 -35
-40 -40 -44 -6 -3 -24 -25 -40 -47 -17 -23 -49 -62 -72 -87 -23 -25 -54 -61
-69 -82 -15 -20 -36 -44 -45 -54 -10 -9 -28 -30 -40 -47 -12 -16 -36 -45 -55
-66 -18 -20 -55 -63 -81 -96 -97 -121 -113 -140 -147 -173 -37 -36 -68 -73
-180 -218 -38 -50 -70 -96 -70 -102 0 -5 -4 -12 -9 -14 -6 -1 -12 -14 -15 -28
-37 -182 -36 -176 -11 -281 26 -109 86 -183 270 -329 44 -35 85 -68 90 -75 16
-18 117 -90 145 -103 41 -19 145 -42 188 -42 154 0 277 70 411 232 31 38 74
91 96 117 22 26 83 101 137 167 53 65 111 135 130 154 31 32 158 186 218 265
30 40 92 113 140 166 l35 38 85 -20 c117 -28 409 -30 520 -5 41 10 86 20 100
22 14 3 54 14 90 26 56 18 89 30 195 73 11 5 22 9 25 10 3 0 34 17 69 35 35
19 72 39 82 45 11 5 19 13 19 17 0 5 5 8 12 8 24 0 198 141 297 241 120 121
207 232 257 326 20 38 46 84 57 103 25 39 35 64 83 203 56 161 74 259 74 411
0 74 -4 156 -9 183 -6 26 -16 75 -22 108 -7 33 -13 65 -15 70 -19 96 -87 275
-105 275 -4 0 -10 12 -13 27 -4 14 -20 45 -37 69 -16 23 -29 45 -29 48 0 14
-99 156 -130 186 -25 24 -80 97 -80 106 0 12 -77 79 -108 95 -15 7 -36 21 -47
30 -11 10 -42 33 -70 51 -27 19 -72 50 -100 69 -27 20 -63 40 -80 47 -155 57
-202 74 -215 77 -8 2 -51 11 -95 21 -85 18 -234 31 -325 27z"/>
</g>
</svg>
